<svg width="77" height="101" viewBox="0 0 77 101" fill="none" xmlns="http://www.w3.org/2000/svg">
<path d="M50.2673 57.9793C48.742 55.2213 47.1664 52.372 45.7167 49.6642H45.1789C46.6004 52.328 48.1477 55.1301 49.6572 57.8567H46.2481C46.1035 57.3598 45.6317 55.9226 44.66 54.4665C43.0875 52.1078 40.9521 50.8561 38.4802 50.8467C35.9832 50.8782 33.8478 52.1361 32.3005 54.4854C31.3476 55.9352 30.8979 57.3598 30.7595 57.8567H27.3599C29.0739 54.869 30.2846 52.7274 31.8948 49.6642H31.357C29.7469 52.7211 28.5203 54.8785 26.7435 57.9762L26.5391 58.3316H31.1275L31.1715 58.1492C31.1872 58.0831 32.8383 51.3939 38.4802 51.3216C44.053 51.3436 45.8173 58.0831 45.8362 58.1523L45.8802 58.3316H50.4592L50.2642 57.9793H50.2673ZM45.6852 46.1105H44.3014C43.0026 42.7863 42.3107 40.2861 42.0937 39.4653H42.0686L43.1032 36.5469H41.2666C40.6093 32.3358 39.7917 19.0015 39.7445 16.7403L39.7351 16.278C39.691 14.1741 39.6533 12.3532 39.7193 10.8184C39.7288 10.6329 39.7571 10.4599 39.7571 10.4599C39.8829 9.52904 40.3074 9.24285 40.4678 9.18939C40.5968 9.14536 40.8075 9.13907 40.8075 9.13907V7.5509H40.0118L40.1911 6.38414H39.5935V5.06958H38.7413V0H38.2664V5.06958H37.4141V6.38414H36.8197L36.999 7.5509H36.2033V9.13907C36.2033 9.13907 36.414 9.14536 36.543 9.18939C36.7222 9.24914 37.2317 9.59508 37.2852 10.8184C37.3544 12.3563 37.3135 14.1741 37.2695 16.2811L37.26 16.7403C37.2128 19.0015 36.3952 32.3358 35.7379 36.5469H33.9076L34.8982 39.5156C34.6718 40.3805 33.9799 42.8461 32.7062 46.1105H31.357V49.6642H45.6852V46.1105ZM37.889 5.54131H39.1187V6.381H37.889V5.54131ZM39.6344 6.85588L39.5275 7.54776H37.4865L37.3795 6.85588H39.6376H39.6344ZM36.6814 8.66419V8.02578H40.3294V8.66419H36.6814ZM37.738 16.7497L37.7475 16.2906C37.7915 14.2747 37.8261 12.5261 37.7695 11.0197H39.2382C39.1816 12.523 39.2193 14.2747 39.2602 16.2874L39.2696 16.7497C39.3168 19.0015 40.1282 32.2195 40.7886 36.5469H36.2191C36.8763 32.2195 37.6909 19.0015 37.738 16.7497ZM36.5556 46.1105L37.6343 41.1038H39.3797L40.4584 46.1105H36.5587H36.5556ZM40.9396 46.1105L39.7602 40.6258H37.2474L36.0681 46.1105H33.2157C34.4799 42.8492 35.1592 40.4025 35.3731 39.5848H41.6377C41.8516 40.4025 42.5277 42.8492 43.7951 46.1105H40.9427H40.9396Z" fill="white"/>
<path d="M1.51746 73.8314V72.1648V66.7316V66.6649H2.80075H4.01738V66.7316V72.1648V73.8314V77.448C4.01738 77.5313 4.01738 77.5479 4.08405 77.5479H6.85063H7.56728H8.0506H8.11726V79.6646H5.06735H1.51746V79.5812V73.8314ZM17.4274 77.098H13.1442C12.4609 78.7646 12.1442 79.5146 12.1109 79.6146V79.6646H10.8776H9.5443V79.6146C9.5943 79.5146 9.92762 78.7646 12.0776 73.8147L15.2608 66.4316H15.6108L18.744 73.8147C20.844 78.7646 21.1606 79.4979 21.1939 79.6146V79.6646H19.894H18.4274V79.6146C18.394 79.5146 18.094 78.7646 17.4274 77.098ZM13.9108 75.098H16.6774V75.048C15.7274 72.5814 15.4775 71.8815 15.3275 71.3648H15.3108C15.1608 71.8815 14.9108 72.5981 13.9108 75.048V75.098ZM30.9644 73.8314V68.7815H28.5311H27.4978H27.4145V66.6649H31.3477H32.931H36.9975V68.7815H36.9308H35.9142H33.4476V73.8314V79.6312V79.6646H32.2143H30.9644V79.6312V73.8314ZM51.5364 73.0814V73.0981C51.5364 76.8813 48.7031 79.8645 44.7699 79.8645C40.97 79.8645 38.0535 76.9146 38.0535 73.1981C38.0535 69.4315 41.0034 66.4983 44.9366 66.4983C48.7698 66.4983 51.5364 69.3649 51.5364 73.0814ZM48.9698 73.1647V73.1481C48.9698 70.6982 47.2199 68.7815 44.8199 68.7815C42.3867 68.7815 40.6034 70.6815 40.6034 73.1814C40.6034 75.6147 42.37 77.5813 44.8366 77.5813C47.3032 77.5813 48.9698 75.6313 48.9698 73.1647ZM54.1312 73.8147V72.1648V66.6983V66.6649H55.3812H56.6645V66.6983V72.1648V73.7814C56.6645 75.0147 56.7812 75.8313 57.1145 76.4146C57.5645 77.1646 58.4978 77.5813 59.4477 77.5813C60.431 77.5813 61.2477 77.2146 61.731 76.498C62.1477 75.8813 62.281 74.998 62.281 73.7147V72.1648V66.6983V66.6649H63.5143H64.7309V66.6983V72.1648V73.7481C64.7309 75.4147 64.5476 76.5313 64.0143 77.4813C63.3143 78.7812 61.681 79.8979 59.4811 79.8979C57.2311 79.8979 55.5312 78.9646 54.7312 77.3646C54.2646 76.4646 54.1312 75.448 54.1312 73.8147ZM67.8924 73.8314V72.1648V66.7483V66.7149C68.1424 66.6816 68.5257 66.6649 68.909 66.6483C69.2757 66.6316 69.959 66.6149 70.3423 66.6149C71.309 66.6149 72.1423 66.6983 72.8923 66.9316C73.8589 67.2149 75.3588 68.1316 75.3588 70.4148C75.3588 71.9981 74.5255 72.9981 73.9589 73.4147C73.6422 73.6647 73.2589 73.8814 72.9923 73.9814V74.0147C73.1089 74.1814 73.3089 74.4814 76.0088 78.2646C76.3755 78.7646 76.9088 79.5146 76.9921 79.6312V79.6646H75.6088H74.6089H74.1422C73.1922 78.2313 72.0589 76.5146 70.659 74.4647H70.259V75.1314V79.6312V79.6646H69.0924H67.8924V79.6312V73.8314ZM72.9256 70.6148V70.5982C72.9256 69.3815 72.1089 68.6982 70.8923 68.6982C70.609 68.6982 70.409 68.7149 70.259 68.7315V72.6648C70.3757 72.6814 70.5423 72.6814 70.709 72.6814C71.1756 72.6814 71.6256 72.5648 71.9423 72.3648C72.4089 72.1148 72.9256 71.5648 72.9256 70.6148ZM13.8315 90.8314V89.1648V83.6983V83.6649H17.2148H20.348V85.7649H20.3147H18.4147H16.3315V89.0148H18.5314H19.9147H19.948V90.0314V91.1147H19.9147H18.5647H16.3315V94.298V94.5479H19.2147H20.448H20.4813V96.6646H17.4314H13.8315V96.6312V90.8314ZM25.8722 89.1648V90.8314V96.6312V96.6646H24.6722H23.3723V96.6146V90.8314V89.1648V83.7316V83.6649H24.6222H25.8722V83.7149V89.1648ZM31.7509 85.7649V89.3481H33.9509H35.3008H35.3675V90.3647V91.448H35.3008H33.9842H31.7509V91.8647V96.6146V96.6646H30.5176H29.251V96.5812V90.8314V89.1648V83.7816V83.6649H32.6176H35.7675V85.7649H35.6841H33.8342H31.7509ZM41.0963 85.7649V89.3481H43.2963H44.6462H44.7129V90.3647V91.448H44.6462H43.3296H41.0963V91.8647V96.6146V96.6646H39.863H38.5964V96.5812V90.8314V89.1648V83.7816V83.6649H41.963H45.1129V85.7649H45.0296H43.1796H41.0963ZM47.9418 90.8314V89.1648V83.6983V83.6649H51.3251H54.4583V85.7649H54.425H52.525H50.4418V89.0148H52.6417H54.025H54.0583V90.0314V91.1147H54.025H52.675H50.4418V94.298V94.5479H53.325H54.5583H54.5916V96.6646H51.5417H47.9418V96.6312V90.8314ZM57.4826 90.8314V89.1648V83.7316V83.6649H58.7659H59.9825V83.7316V89.1648V90.8314V94.448C59.9825 94.5313 59.9825 94.5479 60.0492 94.5479H62.8157H63.5324H64.0157H64.0824V96.6646H61.0325H57.4826V96.5812V90.8314Z" fill="white"/>
</svg>
